<?xml version="1.0" encoding="utf-8"?>
<!DOCTYPE svg PUBLIC "-//W3C//DTD SVG 1.1//EN" "http://www.w3.org/Graphics/SVG/1.1/DTD/svg11.dtd">
<svg version="1.1" xmlns="http://www.w3.org/2000/svg" xmlns:xlink="http://www.w3.org/1999/xlink" x="0px" y="0px" width="32px" height="32px" viewBox="0 0 32 32">
	<rect fill="#FFEF1F" width="32" height="32"/>
	<path fill="#1F1F1F" d="M16,6.598c1.387,0.961,2.92,1.492,4.383,1.492c0.842,0,1.64-0.173,2.37-0.509l0.642,0.642c-0.78,1.604-0.683,3.416-0.552,5.835C22.913,15.356,23,16.972,23,19c0,4.537-5.409,6.462-7,6.93c-1.597-0.47-7-2.396-7-6.93c0-2.028,0.087-3.644,0.157-4.942c0.13-2.419,0.228-4.231-0.552-5.835l0.642-0.642c0.73,0.336,1.528,0.509,2.371,0.509C13.081,8.09,14.613,7.56,16,6.598 M16,4c-1.236,1.236-2.854,2.09-4.382,2.09C10.673,6.09,9.764,5.764,9,5L6,8c2,2,1,4,1,11s9,9,9,9s9-2,9-9s-1-9,1-11l-3-3c-0.764,0.764-1.674,1.09-2.617,1.09C18.854,6.09,17.236,5.236,16,4L16,4z"/>
	<polygon fill="#1F1F1F" points="16,12.195 17.236,14.7 20,15.102 18.001,17.052 18.473,19.805 16,18.505 13.528,19.805 14,17.052 12,15.102 14.765,14.7 "/>
</svg>
